STARTFONT 2.1
FONT -FontForge-Calculator-Book-R-Normal--25-240-75-75-P-77-ISO10646-1
SIZE 24 75 75
FONTBOUNDINGBOX 26 28 0 -6
COMMENT "Generated by fontforge, http://fontforge.sourceforge.net"
COMMENT "Calculator (c) Micah Jablonski. 2009. All Rights Reserved"
STARTPROPERTIES 39
FOUNDRY "FontForge"
FAMILY_NAME "Calculator"
WEIGHT_NAME "Book"
SLANT "R"
SETWIDTH_NAME "Normal"
ADD_STYLE_NAME ""
PIXEL_SIZE 25
POINT_SIZE 240
RESOLUTION_X 75
RESOLUTION_Y 75
SPACING "P"
AVERAGE_WIDTH 77
CHARSET_REGISTRY "ISO10646"
CHARSET_ENCODING "1"
FONTNAME_REGISTRY ""
CHARSET_COLLECTIONS "Symbol ISO10646-1"
FONT_NAME "Calculator"
FACE_NAME "Calculator"
COPYRIGHT "Calculator (c) Micah Jablonski. 2009. All Rights Reserved"
FONT_VERSION "1.1 January 1, 2009, initial release"
FONT_ASCENT 20
FONT_DESCENT 5
UNDERLINE_POSITION -4
UNDERLINE_THICKNESS 2
X_HEIGHT 6
CAP_HEIGHT 13
RAW_ASCENT 799
RAW_DESCENT 200
NORM_SPACE 7
RELATIVE_WEIGHT 40
RELATIVE_SETWIDTH 50
SUPERSCRIPT_X 0
SUPERSCRIPT_Y 11
SUPERSCRIPT_SIZE 16
SUBSCRIPT_X 0
SUBSCRIPT_Y 3
SUBSCRIPT_SIZE 16
AVG_LOWERCASE_WIDTH 54
AVG_UPPERCASE_WIDTH 62
ENDPROPERTIES
CHARS 243
STARTCHAR space
ENCODING 32
SWIDTH 292 0
DWIDTH 7 0
BBX 1 1 0 0
BITMAP
00
ENDCHAR
STARTCHAR exclam
ENCODING 33
SWIDTH 142 0
DWIDTH 4 0
BBX 1 16 1 0
BITMAP
80
80
80
80
80
80
80
80
80
80
80
80
80
80
00
80
ENDCHAR
STARTCHAR quotedbl
ENCODING 34
SWIDTH 240 0
DWIDTH 6 0
BBX 4 4 1 18
BITMAP
90
90
90
90
ENDCHAR
STARTCHAR numbersign
ENCODING 35
SWIDTH 673 0
DWIDTH 17 0
BBX 15 14 1 1
BITMAP
0C40
0C40
0C40
0C40
FFFC
0C40
0C40
0C40
0C40
FFFE
0C40
0C40
0C40
0C40
ENDCHAR
STARTCHAR dollar
ENCODING 36
SWIDTH 438 0
DWIDTH 11 0
BBX 9 20 1 -2
BITMAP
0800
0800
7F00
8080
8880
8800
8800
8800
8800
8000
7F00
0080
0880
0880
0880
0880
8080
7F00
0800
0800
ENDCHAR
STARTCHAR percent
ENCODING 37
SWIDTH 777 0
DWIDTH 19 0
BBX 17 18 1 0
BITMAP
000800
001000
781000
843000
842000
842000
844000
784000
00C000
008000
008000
010F00
011080
031080
021080
021080
040F00
040000
ENDCHAR
STARTCHAR ampersand
ENCODING 38
SWIDTH 913 0
DWIDTH 23 0
BBX 21 20 1 -2
BITMAP
068000
084000
102000
102000
102000
186000
0CC000
078000
0707C0
0D80F8
18C180
306300
603600
C01C00
001C10
403620
4063C0
60C180
318000
0F0000
ENDCHAR
STARTCHAR quotesingle
ENCODING 39
SWIDTH 142 0
DWIDTH 4 0
BBX 1 6 1 13
BITMAP
80
80
80
80
80
80
ENDCHAR
STARTCHAR parenleft
ENCODING 40
SWIDTH 230 0
DWIDTH 6 0
BBX 4 26 1 -4
BITMAP
20
20
20
40
40
40
80
80
80
80
80
80
80
80
80
80
80
80
80
80
00
40
40
20
20
30
ENDCHAR
STARTCHAR parenright
ENCODING 41
SWIDTH 228 0
DWIDTH 6 0
BBX 4 26 1 -5
BITMAP
C0
40
40
20
20
00
30
30
30
30
30
30
00
30
30
30
30
30
30
00
20
20
40
40
C0
80
ENDCHAR
STARTCHAR asterisk
ENCODING 42
SWIDTH 333 0
DWIDTH 8 0
BBX 5 6 2 13
BITMAP
20
20
20
D8
F0
98
ENDCHAR
STARTCHAR plus
ENCODING 43
SWIDTH 489 0
DWIDTH 12 0
BBX 9 9 2 4
BITMAP
0800
0800
0800
0000
F780
0800
0800
0800
0800
ENDCHAR
STARTCHAR comma
ENCODING 44
SWIDTH 142 0
DWIDTH 4 0
BBX 1 4 1 -2
BITMAP
80
80
80
80
ENDCHAR
STARTCHAR hyphen
ENCODING 45
SWIDTH 283 0
DWIDTH 7 0
BBX 3 2 2 5
BITMAP
E0
E0
ENDCHAR
STARTCHAR period
ENCODING 46
SWIDTH 142 0
DWIDTH 4 0
BBX 1 1 1 1
BITMAP
80
ENDCHAR
STARTCHAR slash
ENCODING 47
SWIDTH 436 0
DWIDTH 11 0
BBX 7 17 2 -1
BITMAP
02
02
06
04
04
08
08
10
10
30
20
00
40
40
C0
80
80
ENDCHAR
STARTCHAR zero
ENCODING 48
SWIDTH 435 0
DWIDTH 11 0
BBX 9 16 1 0
BITMAP
7E00
FE80
8280
8280
8680
8480
8C80
8880
0000
9880
9080
9080
A080
A080
8080
7F00
ENDCHAR
STARTCHAR one
ENCODING 49
SWIDTH 335 0
DWIDTH 8 0
BBX 6 15 1 0
BITMAP
70
D0
10
10
10
10
10
10
10
10
10
10
10
10
FC
ENDCHAR
STARTCHAR two
ENCODING 50
SWIDTH 436 0
DWIDTH 11 0
BBX 9 16 1 0
BITMAP
7F00
8080
8080
0080
0080
0080
0080
0080
7F00
8000
8000
8000
8000
8000
8000
7F00
ENDCHAR
STARTCHAR three
ENCODING 51
SWIDTH 413 0
DWIDTH 10 0
BBX 8 16 1 0
BITMAP
7E
01
01
01
01
01
01
01
FF
01
01
01
01
01
01
FE
ENDCHAR
STARTCHAR four
ENCODING 52
SWIDTH 435 0
DWIDTH 11 0
BBX 9 14 1 1
BITMAP
8080
8080
8080
8080
8080
8080
8080
7F00
0080
0080
0080
0080
0080
0080
ENDCHAR
STARTCHAR five
ENCODING 53
SWIDTH 435 0
DWIDTH 11 0
BBX 9 16 1 0
BITMAP
7F00
8000
8000
8000
8000
8000
8000
8000
7F00
0080
0080
0080
0080
8080
8080
7F00
ENDCHAR
STARTCHAR six
ENCODING 54
SWIDTH 435 0
DWIDTH 11 0
BBX 9 16 1 0
BITMAP
7F00
8000
8000
8000
8000
8000
8000
8000
7F00
8080
8080
8080
8080
8080
8080
7F00
ENDCHAR
STARTCHAR seven
ENCODING 55
SWIDTH 409 0
DWIDTH 10 0
BBX 7 15 2 1
BITMAP
FC
02
02
02
02
02
02
02
02
02
02
02
02
02
02
ENDCHAR
STARTCHAR eight
ENCODING 56
SWIDTH 435 0
DWIDTH 11 0
BBX 9 16 1 0
BITMAP
7F00
8080
8080
8080
8080
8080
8080
8080
7F00
8080
8080
8080
8080
8080
8080
7F00
ENDCHAR
STARTCHAR nine
ENCODING 57
SWIDTH 435 0
DWIDTH 11 0
BBX 9 16 1 0
BITMAP
7F00
8080
8080
8080
8080
8080
8080
8080
7F00
0080
0080
0080
0080
0080
0080
7F00
ENDCHAR
STARTCHAR colon
ENCODING 58
SWIDTH 142 0
DWIDTH 4 0
BBX 1 10 1 2
BITMAP
80
00
00
00
00
00
00
00
80
80
ENDCHAR
STARTCHAR semicolon
ENCODING 59
SWIDTH 147 0
DWIDTH 4 0
BBX 1 13 1 -1
BITMAP
80
00
00
00
00
00
00
00
00
80
80
80
80
ENDCHAR
STARTCHAR less
ENCODING 60
SWIDTH 337 0
DWIDTH 8 0
BBX 6 13 1 2
BITMAP
04
0C
18
30
60
C0
00
C0
60
30
18
0C
04
ENDCHAR
STARTCHAR equal
ENCODING 61
SWIDTH 380 0
DWIDTH 10 0
BBX 7 5 1 6
BITMAP
FE
00
00
00
7E
ENDCHAR
STARTCHAR greater
ENCODING 62
SWIDTH 337 0
DWIDTH 8 0
BBX 6 13 1 2
BITMAP
80
40
20
10
08
04
00
0C
18
30
60
C0
80
ENDCHAR
STARTCHAR question
ENCODING 63
SWIDTH 409 0
DWIDTH 10 0
BBX 7 15 2 1
BITMAP
FE
02
02
02
02
02
02
0C
30
30
30
30
00
00
30
ENDCHAR
STARTCHAR at
ENCODING 64
SWIDTH 731 0
DWIDTH 18 0
BBX 16 16 1 -2
BITMAP
7FFE
8001
8001
8001
8021
83E1
8421
0421
8421
8421
87FF
801E
8000
8000
8000
7F7E
ENDCHAR
STARTCHAR A
ENCODING 65
SWIDTH 435 0
DWIDTH 11 0
BBX 9 15 1 1
BITMAP
7F00
8080
8080
8080
8080
8080
8080
8080
7F00
8080
8080
8080
8080
8080
8080
ENDCHAR
STARTCHAR B
ENCODING 66
SWIDTH 426 0
DWIDTH 11 0
BBX 9 16 1 0
BITMAP
7800
8200
8300
8000
8180
8000
8300
8200
7A00
8300
8100
8180
8000
8100
8200
7C00
ENDCHAR
STARTCHAR C
ENCODING 67
SWIDTH 436 0
DWIDTH 11 0
BBX 9 16 1 0
BITMAP
7F00
8080
8080
8080
8000
8000
8000
8000
0000
8000
8000
8000
8000
8080
8080
7F00
ENDCHAR
STARTCHAR D
ENCODING 68
SWIDTH 475 0
DWIDTH 12 0
BBX 10 16 1 0
BITMAP
7800
8200
8300
8180
8000
8040
8040
8040
0040
8040
8040
8000
8080
8180
8300
7E00
ENDCHAR
STARTCHAR E
ENCODING 69
SWIDTH 413 0
DWIDTH 10 0
BBX 8 16 1 0
BITMAP
7F
80
80
80
80
80
80
80
FF
80
80
80
80
80
80
7F
ENDCHAR
STARTCHAR F
ENCODING 70
SWIDTH 413 0
DWIDTH 10 0
BBX 8 15 1 1
BITMAP
7F
FE
80
80
80
80
80
80
7F
80
80
80
80
80
80
ENDCHAR
STARTCHAR G
ENCODING 71
SWIDTH 525 0
DWIDTH 13 0
BBX 11 16 1 0
BITMAP
7F00
8180
8180
8000
8000
8000
8000
8000
03E0
8080
8080
8080
8080
8080
8080
7F00
ENDCHAR
STARTCHAR H
ENCODING 72
SWIDTH 435 0
DWIDTH 11 0
BBX 9 14 1 1
BITMAP
8080
8080
8080
8080
8080
8080
8080
7F00
8080
8080
8080
8080
8080
8080
ENDCHAR
STARTCHAR I
ENCODING 73
SWIDTH 353 0
DWIDTH 9 0
BBX 7 16 1 0
BITMAP
EC
10
10
10
10
10
10
10
10
10
10
10
10
10
10
EE
ENDCHAR
STARTCHAR J
ENCODING 74
SWIDTH 525 0
DWIDTH 13 0
BBX 11 16 1 0
BITMAP
7BE0
0400
0400
0400
0400
0400
0400
0400
0000
0400
0400
8400
8400
8400
8400
7C00
ENDCHAR
STARTCHAR K
ENCODING 75
SWIDTH 416 0
DWIDTH 10 0
BBX 8 14 1 1
BITMAP
80
81
82
84
98
B0
A0
00
B0
98
8C
86
83
81
ENDCHAR
STARTCHAR L
ENCODING 76
SWIDTH 408 0
DWIDTH 10 0
BBX 8 15 1 0
BITMAP
80
80
80
80
80
80
80
80
80
80
80
80
80
80
7F
ENDCHAR
STARTCHAR M
ENCODING 77
SWIDTH 435 0
DWIDTH 11 0
BBX 9 14 1 1
BITMAP
A280
A280
A280
9480
9480
9480
8080
0000
8080
8080
8080
8080
8080
8080
ENDCHAR
STARTCHAR N
ENCODING 78
SWIDTH 435 0
DWIDTH 11 0
BBX 9 14 1 1
BITMAP
8080
A080
A080
A080
9080
9080
8080
0800
8480
8480
8680
8280
8280
8080
ENDCHAR
STARTCHAR O
ENCODING 79
SWIDTH 435 0
DWIDTH 11 0
BBX 9 16 1 0
BITMAP
7F00
8080
8080
8080
8080
8080
8080
8080
0000
8080
8080
8080
8080
8080
8080
7F00
ENDCHAR
STARTCHAR P
ENCODING 80
SWIDTH 435 0
DWIDTH 11 0
BBX 9 15 1 1
BITMAP
7F00
8080
8080
8080
8080
8080
8080
8080
7F00
8000
8000
8000
8000
8000
8000
ENDCHAR
STARTCHAR Q
ENCODING 81
SWIDTH 538 0
DWIDTH 13 0
BBX 11 16 1 0
BITMAP
7F00
8080
8080
8080
8080
8080
8080
8080
0000
8080
8080
8680
8280
80C0
80E0
7F20
ENDCHAR
STARTCHAR R
ENCODING 82
SWIDTH 477 0
DWIDTH 12 0
BBX 10 15 1 1
BITMAP
7E00
FE80
8080
8080
8080
8080
8080
8080
7F00
8100
8100
8180
8080
8080
8040
ENDCHAR
STARTCHAR S
ENCODING 83
SWIDTH 435 0
DWIDTH 11 0
BBX 9 16 1 0
BITMAP
7F00
8080
8080
8000
8000
8000
8000
8000
7F00
0080
0080
0080
0080
8080
8080
7F00
ENDCHAR
STARTCHAR T
ENCODING 84
SWIDTH 500 0
DWIDTH 13 0
BBX 9 15 2 1
BITMAP
E780
E800
0800
0800
0800
0800
0800
0800
0800
0800
0800
0800
0800
0800
0800
ENDCHAR
STARTCHAR U
ENCODING 85
SWIDTH 435 0
DWIDTH 11 0
BBX 9 15 1 0
BITMAP
8080
8080
8080
8080
8080
8080
8080
0000
8080
8080
8080
8080
8080
8080
7F00
ENDCHAR
STARTCHAR V
ENCODING 86
SWIDTH 550 0
DWIDTH 14 0
BBX 11 13 1 1
BITMAP
8000
8020
4020
4060
2040
2040
0000
1080
1180
0900
0900
0700
0600
ENDCHAR
STARTCHAR W
ENCODING 87
SWIDTH 435 0
DWIDTH 11 0
BBX 9 14 1 1
BITMAP
8080
8080
8080
8080
8080
8080
8080
0000
9C80
9480
B480
A280
A280
8080
ENDCHAR
STARTCHAR X
ENCODING 88
SWIDTH 338 0
DWIDTH 8 0
BBX 6 13 1 1
BITMAP
84
44
4C
68
28
30
00
30
28
48
4C
C4
84
ENDCHAR
STARTCHAR Y
ENCODING 89
SWIDTH 355 0
DWIDTH 9 0
BBX 7 14 1 0
BITMAP
86
44
44
68
28
00
00
10
10
10
10
10
10
10
ENDCHAR
STARTCHAR Z
ENCODING 90
SWIDTH 426 0
DWIDTH 11 0
BBX 8 16 1 0
BITMAP
7E
01
01
01
02
02
02
0C
18
10
20
60
40
40
80
7F
ENDCHAR
STARTCHAR bracketleft
ENCODING 91
SWIDTH 237 0
DWIDTH 6 0
BBX 4 16 1 0
BITMAP
60
80
80
80
80
80
80
80
00
80
80
80
80
80
80
70
ENDCHAR
STARTCHAR backslash
ENCODING 92
SWIDTH 426 0
DWIDTH 11 0
BBX 8 18 1 -1
BITMAP
80
40
40
60
20
20
10
10
18
08
08
04
00
02
02
03
01
01
ENDCHAR
STARTCHAR bracketright
ENCODING 93
SWIDTH 236 0
DWIDTH 6 0
BBX 4 16 1 0
BITMAP
E0
10
10
10
10
10
10
10
00
10
10
10
10
10
10
E0
ENDCHAR
STARTCHAR asciicircum
ENCODING 94
SWIDTH 347 0
DWIDTH 9 0
BBX 6 6 1 12
BITMAP
28
28
48
44
C4
84
ENDCHAR
STARTCHAR underscore
ENCODING 95
SWIDTH 673 0
DWIDTH 17 0
BBX 14 1 1 -2
BITMAP
FEFC
ENDCHAR
STARTCHAR grave
ENCODING 96
SWIDTH 240 0
DWIDTH 6 0
BBX 4 4 1 14
BITMAP
80
40
20
10
ENDCHAR
STARTCHAR a
ENCODING 97
SWIDTH 430 0
DWIDTH 11 0
BBX 9 8 1 0
BITMAP
7F00
0180
0180
0180
7B80
8180
8180
7F00
ENDCHAR
STARTCHAR b
ENCODING 98
SWIDTH 435 0
DWIDTH 11 0
BBX 9 15 1 0
BITMAP
8000
8000
8000
8000
8000
8000
8000
7F00
8080
8080
8080
8080
8080
8080
7F00
ENDCHAR
STARTCHAR c
ENCODING 99
SWIDTH 408 0
DWIDTH 10 0
BBX 8 8 1 0
BITMAP
7F
80
80
80
80
80
80
7F
ENDCHAR
STARTCHAR d
ENCODING 100
SWIDTH 435 0
DWIDTH 11 0
BBX 9 15 1 0
BITMAP
0080
0080
0080
0080
0080
0080
0080
7F00
8080
8080
8080
8080
8080
8080
7F00
ENDCHAR
STARTCHAR e
ENCODING 101
SWIDTH 440 0
DWIDTH 11 0
BBX 9 8 1 0
BITMAP
7F00
8080
8080
AF00
8000
8000
8000
7F00
ENDCHAR
STARTCHAR f
ENCODING 102
SWIDTH 410 0
DWIDTH 10 0
BBX 7 15 2 1
BITMAP
1E
20
20
20
20
20
20
20
D8
20
20
20
20
20
20
ENDCHAR
STARTCHAR g
ENCODING 103
SWIDTH 436 0
DWIDTH 11 0
BBX 9 13 1 -5
BITMAP
7F00
8080
8080
8080
8080
8080
8080
7F00
0080
0080
0080
0080
7F00
ENDCHAR
STARTCHAR h
ENCODING 104
SWIDTH 435 0
DWIDTH 11 0
BBX 9 14 1 1
BITMAP
8000
8000
8000
8000
8000
8000
8000
7F00
8080
8080
8080
8080
8080
8080
ENDCHAR
STARTCHAR i
ENCODING 105
SWIDTH 143 0
DWIDTH 4 0
BBX 1 9 1 1
BITMAP
80
80
80
80
80
80
80
80
80
ENDCHAR
STARTCHAR j
ENCODING 106
SWIDTH 333 0
DWIDTH 8 0
BBX 6 14 1 -5
BITMAP
04
00
04
04
04
04
04
04
04
04
04
04
84
78
ENDCHAR
STARTCHAR k
ENCODING 107
SWIDTH 392 0
DWIDTH 10 0
BBX 8 14 1 1
BITMAP
80
80
80
80
80
86
8C
18
A0
90
88
86
83
81
ENDCHAR
STARTCHAR l
ENCODING 108
SWIDTH 142 0
DWIDTH 4 0
BBX 1 14 1 1
BITMAP
80
80
80
80
80
80
80
00
80
80
80
80
80
80
ENDCHAR
STARTCHAR m
ENCODING 109
SWIDTH 562 0
DWIDTH 14 0
BBX 12 7 1 1
BITMAP
7DE0
8610
8610
8610
8610
8610
8610
ENDCHAR
STARTCHAR n
ENCODING 110
SWIDTH 435 0
DWIDTH 11 0
BBX 9 8 1 1
BITMAP
7E00
7F00
8080
8080
8080
8080
8080
8080
ENDCHAR
STARTCHAR o
ENCODING 111
SWIDTH 435 0
DWIDTH 11 0
BBX 9 8 1 0
BITMAP
7F00
8080
8080
8080
8080
8080
8080
7F00
ENDCHAR
STARTCHAR p
ENCODING 112
SWIDTH 435 0
DWIDTH 11 0
BBX 9 12 1 -4
BITMAP
7F00
8080
8080
8080
8080
8080
8080
7F00
8000
8000
8000
8000
ENDCHAR
STARTCHAR q
ENCODING 113
SWIDTH 528 0
DWIDTH 13 0
BBX 11 12 1 -4
BITMAP
7F00
8080
8080
8080
8080
8080
8080
7F00
0080
0080
00A0
00C0
ENDCHAR
STARTCHAR r
ENCODING 114
SWIDTH 317 0
DWIDTH 8 0
BBX 5 7 1 1
BITMAP
78
80
80
80
80
80
80
ENDCHAR
STARTCHAR s
ENCODING 115
SWIDTH 328 0
DWIDTH 8 0
BBX 6 11 1 0
BITMAP
78
F8
80
80
80
78
04
04
04
04
78
ENDCHAR
STARTCHAR t
ENCODING 116
SWIDTH 336 0
DWIDTH 8 0
BBX 5 14 2 1
BITMAP
20
20
20
20
20
20
20
D8
20
20
20
20
20
20
ENDCHAR
STARTCHAR u
ENCODING 117
SWIDTH 353 0
DWIDTH 9 0
BBX 7 7 1 0
BITMAP
86
86
86
86
86
86
7C
ENDCHAR
STARTCHAR v
ENCODING 118
SWIDTH 354 0
DWIDTH 9 0
BBX 7 6 1 1
BITMAP
80
86
44
44
28
28
ENDCHAR
STARTCHAR w
ENCODING 119
SWIDTH 435 0
DWIDTH 11 0
BBX 9 7 1 0
BITMAP
8880
8880
8880
8880
8880
8880
7F00
ENDCHAR
STARTCHAR x
ENCODING 120
SWIDTH 396 0
DWIDTH 10 0
BBX 8 7 1 0
BITMAP
C3
66
3C
00
3C
66
C3
ENDCHAR
STARTCHAR y
ENCODING 121
SWIDTH 353 0
DWIDTH 9 0
BBX 7 12 1 -6
BITMAP
86
44
44
68
28
20
10
30
20
20
40
40
ENDCHAR
STARTCHAR z
ENCODING 122
SWIDTH 380 0
DWIDTH 10 0
BBX 7 8 1 0
BITMAP
7E
06
0C
18
30
60
40
FE
ENDCHAR
STARTCHAR braceleft
ENCODING 123
SWIDTH 432 0
DWIDTH 11 0
BBX 8 24 1 -4
BITMAP
0F
1F
10
10
10
10
10
10
10
20
40
80
C0
60
30
00
10
10
10
10
10
10
0F
07
ENDCHAR
STARTCHAR bar
ENCODING 124
SWIDTH 142 0
DWIDTH 4 0
BBX 1 21 1 -3
BITMAP
80
80
80
80
80
80
00
80
80
80
80
80
80
80
80
80
80
80
80
80
80
ENDCHAR
STARTCHAR braceright
ENCODING 125
SWIDTH 427 0
DWIDTH 11 0
BBX 7 24 2 -4
BITMAP
F0
F0
08
08
08
08
08
08
08
0C
06
02
02
06
0C
08
18
18
18
18
18
18
E0
E0
ENDCHAR
STARTCHAR asciitilde
ENCODING 126
SWIDTH 562 0
DWIDTH 14 0
BBX 12 4 1 7
BITMAP
1810
2420
4240
8180
ENDCHAR
STARTCHAR space.dup1
ENCODING 160
SWIDTH 292 0
DWIDTH 7 0
BBX 1 1 0 0
BITMAP
00
ENDCHAR
STARTCHAR exclamdown
ENCODING 161
SWIDTH 97 0
DWIDTH 2 0
BBX 1 1 0 0
BITMAP
00
ENDCHAR
STARTCHAR cent
ENCODING 162
SWIDTH 97 0
DWIDTH 2 0
BBX 1 1 0 0
BITMAP
00
ENDCHAR
STARTCHAR sterling
ENCODING 163
SWIDTH 525 0
DWIDTH 13 0
BBX 11 18 1 0
BITMAP
07C0
1CC0
3040
3000
6000
6000
6000
6000
3000
FF00
1800
1800
1800
1800
3000
3020
60C0
7FC0
ENDCHAR
STARTCHAR currency
ENCODING 164
SWIDTH 482 0
DWIDTH 12 0
BBX 10 9 1 4
BITMAP
DEC0
7F80
6180
6080
4080
6180
3300
7F80
4080
ENDCHAR
STARTCHAR yen
ENCODING 165
SWIDTH 721 0
DWIDTH 18 0
BBX 16 15 1 0
BITMAP
FC1F
300C
1808
1C10
0C30
FE3E
0340
0380
7FFE
0180
0180
0180
0180
0180
07E0
ENDCHAR
STARTCHAR brokenbar
ENCODING 166
SWIDTH 142 0
DWIDTH 4 0
BBX 1 18 1 -2
BITMAP
80
80
80
80
80
80
00
00
00
00
00
00
80
80
80
80
80
80
ENDCHAR
STARTCHAR section
ENCODING 167
SWIDTH 432 0
DWIDTH 11 0
BBX 9 23 1 -5
BITMAP
3E00
6700
C300
C000
E000
F000
7C00
3E00
3F00
6300
4100
C100
E100
7300
7C00
3E00
0F00
0380
0180
0100
8100
C300
7C00
ENDCHAR
STARTCHAR dieresis
ENCODING 168
SWIDTH 387 0
DWIDTH 10 0
BBX 7 3 1 14
BITMAP
42
E6
46
ENDCHAR
STARTCHAR copyright
ENCODING 169
SWIDTH 823 0
DWIDTH 21 0
BBX 18 18 1 0
BITMAP
01F000
0E0C00
180200
21F900
260880
440040
4C0040
880040
980040
980040
980040
8C0040
4C0440
460480
239880
100300
0C0600
03F800
ENDCHAR
STARTCHAR ordfeminine
ENCODING 170
SWIDTH 97 0
DWIDTH 2 0
BBX 1 1 0 0
BITMAP
00
ENDCHAR
STARTCHAR guillemotleft
ENCODING 171
SWIDTH 432 0
DWIDTH 11 0
BBX 8 8 2 2
BITMAP
11
22
64
CC
D8
44
22
11
ENDCHAR
STARTCHAR logicalnot
ENCODING 172
SWIDTH 513 0
DWIDTH 13 0
BBX 11 6 1 3
BITMAP
FFE0
0060
0060
0060
0060
0060
ENDCHAR
STARTCHAR hyphen.dup2
ENCODING 173
SWIDTH 283 0
DWIDTH 7 0
BBX 3 2 2 5
BITMAP
E0
E0
ENDCHAR
STARTCHAR registered
ENCODING 174
SWIDTH 823 0
DWIDTH 21 0
BBX 18 18 1 0
BITMAP
01F000
0E0C00
180200
200100
27F080
431040
431840
831840
831840
831040
83F040
837040
433040
431880
27BC80
100300
0C0600
03F800
ENDCHAR
STARTCHAR macron
ENCODING 175
SWIDTH 97 0
DWIDTH 2 0
BBX 1 1 0 0
BITMAP
00
ENDCHAR
STARTCHAR degree
ENCODING 176
SWIDTH 375 0
DWIDTH 9 0
BBX 7 7 1 11
BITMAP
18
6C
C2
82
82
46
7C
ENDCHAR
STARTCHAR plusminus
ENCODING 177
SWIDTH 97 0
DWIDTH 2 0
BBX 1 1 0 0
BITMAP
00
ENDCHAR
STARTCHAR uni00B2
ENCODING 178
SWIDTH 97 0
DWIDTH 2 0
BBX 1 1 0 0
BITMAP
00
ENDCHAR
STARTCHAR uni00B3
ENCODING 179
SWIDTH 97 0
DWIDTH 2 0
BBX 1 1 0 0
BITMAP
00
ENDCHAR
STARTCHAR acute
ENCODING 180
SWIDTH 334 0
DWIDTH 8 0
BBX 5 4 2 13
BITMAP
18
30
60
80
ENDCHAR
STARTCHAR mu
ENCODING 181
SWIDTH 97 0
DWIDTH 2 0
BBX 1 1 0 0
BITMAP
00
ENDCHAR
STARTCHAR paragraph
ENCODING 182
SWIDTH 511 0
DWIDTH 13 0
BBX 11 18 1 0
BITMAP
0FE0
3C80
7C80
FC80
FC80
FC80
7C80
7C80
3C80
0480
0480
0480
0480
0480
0480
0480
0480
0480
ENDCHAR
STARTCHAR periodcentered
ENCODING 183
SWIDTH 225 0
DWIDTH 6 0
BBX 3 3 1 7
BITMAP
60
E0
60
ENDCHAR
STARTCHAR cedilla
ENCODING 184
SWIDTH 302 0
DWIDTH 8 0
BBX 5 5 1 -5
BITMAP
20
70
18
18
F8
ENDCHAR
STARTCHAR uni00B9
ENCODING 185
SWIDTH 97 0
DWIDTH 2 0
BBX 1 1 0 0
BITMAP
00
ENDCHAR
STARTCHAR ordmasculine
ENCODING 186
SWIDTH 97 0
DWIDTH 2 0
BBX 1 1 0 0
BITMAP
00
ENDCHAR
STARTCHAR guillemotright
ENCODING 187
SWIDTH 432 0
DWIDTH 11 0
BBX 8 8 1 2
BITMAP
80
4C
66
33
33
26
44
88
ENDCHAR
STARTCHAR onequarter
ENCODING 188
SWIDTH 97 0
DWIDTH 2 0
BBX 1 1 0 0
BITMAP
00
ENDCHAR
STARTCHAR onehalf
ENCODING 189
SWIDTH 97 0
DWIDTH 2 0
BBX 1 1 0 0
BITMAP
00
ENDCHAR
STARTCHAR threequarters
ENCODING 190
SWIDTH 97 0
DWIDTH 2 0
BBX 1 1 0 0
BITMAP
00
ENDCHAR
STARTCHAR questiondown
ENCODING 191
SWIDTH 97 0
DWIDTH 2 0
BBX 1 1 0 0
BITMAP
00
ENDCHAR
STARTCHAR Agrave
ENCODING 192
SWIDTH 97 0
DWIDTH 2 0
BBX 1 1 0 0
BITMAP
00
ENDCHAR
STARTCHAR Aacute
ENCODING 193
SWIDTH 97 0
DWIDTH 2 0
BBX 1 1 0 0
BITMAP
00
ENDCHAR
STARTCHAR Acircumflex
ENCODING 194
SWIDTH 97 0
DWIDTH 2 0
BBX 1 1 0 0
BITMAP
00
ENDCHAR
STARTCHAR Atilde
ENCODING 195
SWIDTH 97 0
DWIDTH 2 0
BBX 1 1 0 0
BITMAP
00
ENDCHAR
STARTCHAR Adieresis
ENCODING 196
SWIDTH 97 0
DWIDTH 2 0
BBX 1 1 0 0
BITMAP
00
ENDCHAR
STARTCHAR Aring
ENCODING 197
SWIDTH 97 0
DWIDTH 2 0
BBX 1 1 0 0
BITMAP
00
ENDCHAR
STARTCHAR AE
ENCODING 198
SWIDTH 97 0
DWIDTH 2 0
BBX 1 1 0 0
BITMAP
00
ENDCHAR
STARTCHAR Ccedilla
ENCODING 199
SWIDTH 97 0
DWIDTH 2 0
BBX 1 1 0 0
BITMAP
00
ENDCHAR
STARTCHAR Egrave
ENCODING 200
SWIDTH 97 0
DWIDTH 2 0
BBX 1 1 0 0
BITMAP
00
ENDCHAR
STARTCHAR Eacute
ENCODING 201
SWIDTH 97 0
DWIDTH 2 0
BBX 1 1 0 0
BITMAP
00
ENDCHAR
STARTCHAR Ecircumflex
ENCODING 202
SWIDTH 97 0
DWIDTH 2 0
BBX 1 1 0 0
BITMAP
00
ENDCHAR
STARTCHAR Edieresis
ENCODING 203
SWIDTH 97 0
DWIDTH 2 0
BBX 1 1 0 0
BITMAP
00
ENDCHAR
STARTCHAR Igrave
ENCODING 204
SWIDTH 97 0
DWIDTH 2 0
BBX 1 1 0 0
BITMAP
00
ENDCHAR
STARTCHAR Iacute
ENCODING 205
SWIDTH 97 0
DWIDTH 2 0
BBX 1 1 0 0
BITMAP
00
ENDCHAR
STARTCHAR Icircumflex
ENCODING 206
SWIDTH 97 0
DWIDTH 2 0
BBX 1 1 0 0
BITMAP
00
ENDCHAR
STARTCHAR Idieresis
ENCODING 207
SWIDTH 97 0
DWIDTH 2 0
BBX 1 1 0 0
BITMAP
00
ENDCHAR
STARTCHAR Eth
ENCODING 208
SWIDTH 97 0
DWIDTH 2 0
BBX 1 1 0 0
BITMAP
00
ENDCHAR
STARTCHAR Ntilde
ENCODING 209
SWIDTH 97 0
DWIDTH 2 0
BBX 1 1 0 0
BITMAP
00
ENDCHAR
STARTCHAR Ograve
ENCODING 210
SWIDTH 97 0
DWIDTH 2 0
BBX 1 1 0 0
BITMAP
00
ENDCHAR
STARTCHAR Oacute
ENCODING 211
SWIDTH 97 0
DWIDTH 2 0
BBX 1 1 0 0
BITMAP
00
ENDCHAR
STARTCHAR Ocircumflex
ENCODING 212
SWIDTH 97 0
DWIDTH 2 0
BBX 1 1 0 0
BITMAP
00
ENDCHAR
STARTCHAR Otilde
ENCODING 213
SWIDTH 97 0
DWIDTH 2 0
BBX 1 1 0 0
BITMAP
00
ENDCHAR
STARTCHAR Odieresis
ENCODING 214
SWIDTH 97 0
DWIDTH 2 0
BBX 1 1 0 0
BITMAP
00
ENDCHAR
STARTCHAR multiply
ENCODING 215
SWIDTH 445 0
DWIDTH 11 0
BBX 9 9 1 4
BITMAP
4100
E380
7700
3E00
1C00
3E00
7700
E380
4100
ENDCHAR
STARTCHAR Oslash
ENCODING 216
SWIDTH 97 0
DWIDTH 2 0
BBX 1 1 0 0
BITMAP
00
ENDCHAR
STARTCHAR Ugrave
ENCODING 217
SWIDTH 97 0
DWIDTH 2 0
BBX 1 1 0 0
BITMAP
00
ENDCHAR
STARTCHAR Uacute
ENCODING 218
SWIDTH 97 0
DWIDTH 2 0
BBX 1 1 0 0
BITMAP
00
ENDCHAR
STARTCHAR Ucircumflex
ENCODING 219
SWIDTH 97 0
DWIDTH 2 0
BBX 1 1 0 0
BITMAP
00
ENDCHAR
STARTCHAR Udieresis
ENCODING 220
SWIDTH 97 0
DWIDTH 2 0
BBX 1 1 0 0
BITMAP
00
ENDCHAR
STARTCHAR Yacute
ENCODING 221
SWIDTH 97 0
DWIDTH 2 0
BBX 1 1 0 0
BITMAP
00
ENDCHAR
STARTCHAR Thorn
ENCODING 222
SWIDTH 97 0
DWIDTH 2 0
BBX 1 1 0 0
BITMAP
00
ENDCHAR
STARTCHAR germandbls
ENCODING 223
SWIDTH 97 0
DWIDTH 2 0
BBX 1 1 0 0
BITMAP
00
ENDCHAR
STARTCHAR agrave
ENCODING 224
SWIDTH 97 0
DWIDTH 2 0
BBX 1 1 0 0
BITMAP
00
ENDCHAR
STARTCHAR aacute
ENCODING 225
SWIDTH 97 0
DWIDTH 2 0
BBX 1 1 0 0
BITMAP
00
ENDCHAR
STARTCHAR acircumflex
ENCODING 226
SWIDTH 97 0
DWIDTH 2 0
BBX 1 1 0 0
BITMAP
00
ENDCHAR
STARTCHAR atilde
ENCODING 227
SWIDTH 97 0
DWIDTH 2 0
BBX 1 1 0 0
BITMAP
00
ENDCHAR
STARTCHAR adieresis
ENCODING 228
SWIDTH 97 0
DWIDTH 2 0
BBX 1 1 0 0
BITMAP
00
ENDCHAR
STARTCHAR aring
ENCODING 229
SWIDTH 97 0
DWIDTH 2 0
BBX 1 1 0 0
BITMAP
00
ENDCHAR
STARTCHAR ae
ENCODING 230
SWIDTH 97 0
DWIDTH 2 0
BBX 1 1 0 0
BITMAP
00
ENDCHAR
STARTCHAR ccedilla
ENCODING 231
SWIDTH 97 0
DWIDTH 2 0
BBX 1 1 0 0
BITMAP
00
ENDCHAR
STARTCHAR egrave
ENCODING 232
SWIDTH 97 0
DWIDTH 2 0
BBX 1 1 0 0
BITMAP
00
ENDCHAR
STARTCHAR eacute
ENCODING 233
SWIDTH 97 0
DWIDTH 2 0
BBX 1 1 0 0
BITMAP
00
ENDCHAR
STARTCHAR ecircumflex
ENCODING 234
SWIDTH 97 0
DWIDTH 2 0
BBX 1 1 0 0
BITMAP
00
ENDCHAR
STARTCHAR edieresis
ENCODING 235
SWIDTH 97 0
DWIDTH 2 0
BBX 1 1 0 0
BITMAP
00
ENDCHAR
STARTCHAR igrave
ENCODING 236
SWIDTH 97 0
DWIDTH 2 0
BBX 1 1 0 0
BITMAP
00
ENDCHAR
STARTCHAR iacute
ENCODING 237
SWIDTH 97 0
DWIDTH 2 0
BBX 1 1 0 0
BITMAP
00
ENDCHAR
STARTCHAR icircumflex
ENCODING 238
SWIDTH 97 0
DWIDTH 2 0
BBX 1 1 0 0
BITMAP
00
ENDCHAR
STARTCHAR idieresis
ENCODING 239
SWIDTH 97 0
DWIDTH 2 0
BBX 1 1 0 0
BITMAP
00
ENDCHAR
STARTCHAR eth
ENCODING 240
SWIDTH 97 0
DWIDTH 2 0
BBX 1 1 0 0
BITMAP
00
ENDCHAR
STARTCHAR ntilde
ENCODING 241
SWIDTH 97 0
DWIDTH 2 0
BBX 1 1 0 0
BITMAP
00
ENDCHAR
STARTCHAR ograve
ENCODING 242
SWIDTH 97 0
DWIDTH 2 0
BBX 1 1 0 0
BITMAP
00
ENDCHAR
STARTCHAR oacute
ENCODING 243
SWIDTH 97 0
DWIDTH 2 0
BBX 1 1 0 0
BITMAP
00
ENDCHAR
STARTCHAR ocircumflex
ENCODING 244
SWIDTH 97 0
DWIDTH 2 0
BBX 1 1 0 0
BITMAP
00
ENDCHAR
STARTCHAR otilde
ENCODING 245
SWIDTH 97 0
DWIDTH 2 0
BBX 1 1 0 0
BITMAP
00
ENDCHAR
STARTCHAR odieresis
ENCODING 246
SWIDTH 97 0
DWIDTH 2 0
BBX 1 1 0 0
BITMAP
00
ENDCHAR
STARTCHAR divide
ENCODING 247
SWIDTH 513 0
DWIDTH 13 0
BBX 11 12 1 3
BITMAP
0400
0E00
0E00
0400
0000
FFE0
FFE0
0000
0000
0C00
0E00
0400
ENDCHAR
STARTCHAR oslash
ENCODING 248
SWIDTH 97 0
DWIDTH 2 0
BBX 1 1 0 0
BITMAP
00
ENDCHAR
STARTCHAR ugrave
ENCODING 249
SWIDTH 97 0
DWIDTH 2 0
BBX 1 1 0 0
BITMAP
00
ENDCHAR
STARTCHAR uacute
ENCODING 250
SWIDTH 97 0
DWIDTH 2 0
BBX 1 1 0 0
BITMAP
00
ENDCHAR
STARTCHAR ucircumflex
ENCODING 251
SWIDTH 97 0
DWIDTH 2 0
BBX 1 1 0 0
BITMAP
00
ENDCHAR
STARTCHAR udieresis
ENCODING 252
SWIDTH 97 0
DWIDTH 2 0
BBX 1 1 0 0
BITMAP
00
ENDCHAR
STARTCHAR yacute
ENCODING 253
SWIDTH 97 0
DWIDTH 2 0
BBX 1 1 0 0
BITMAP
00
ENDCHAR
STARTCHAR thorn
ENCODING 254
SWIDTH 97 0
DWIDTH 2 0
BBX 1 1 0 0
BITMAP
00
ENDCHAR
STARTCHAR ydieresis
ENCODING 255
SWIDTH 97 0
DWIDTH 2 0
BBX 1 1 0 0
BITMAP
00
ENDCHAR
STARTCHAR dotlessi
ENCODING 305
SWIDTH 325 0
DWIDTH 8 0
BBX 6 12 1 0
BITMAP
10
30
F0
30
30
30
30
30
30
30
30
FC
ENDCHAR
STARTCHAR circumflex
ENCODING 710
SWIDTH 394 0
DWIDTH 10 0
BBX 7 5 1 13
BITMAP
18
38
3C
66
C2
ENDCHAR
STARTCHAR caron
ENCODING 711
SWIDTH 394 0
DWIDTH 10 0
BBX 8 5 1 13
BITMAP
81
42
2C
3C
18
ENDCHAR
STARTCHAR uni02C9
ENCODING 713
SWIDTH 355 0
DWIDTH 9 0
BBX 7 2 1 14
BITMAP
FE
FE
ENDCHAR
STARTCHAR breve
ENCODING 728
SWIDTH 390 0
DWIDTH 10 0
BBX 8 4 1 13
BITMAP
81
C2
7E
3C
ENDCHAR
STARTCHAR dotaccent
ENCODING 729
SWIDTH 208 0
DWIDTH 5 0
BBX 3 3 1 14
BITMAP
40
E0
40
ENDCHAR
STARTCHAR ring
ENCODING 730
SWIDTH 276 0
DWIDTH 7 0
BBX 5 5 1 13
BITMAP
20
70
88
D8
70
ENDCHAR
STARTCHAR ogonek
ENCODING 731
SWIDTH 284 0
DWIDTH 7 0
BBX 5 5 1 -5
BITMAP
20
40
C0
C8
70
ENDCHAR
STARTCHAR tilde
ENCODING 732
SWIDTH 385 0
DWIDTH 10 0
BBX 7 3 1 14
BITMAP
02
7E
8C
ENDCHAR
STARTCHAR hungarumlaut
ENCODING 733
SWIDTH 393 0
DWIDTH 10 0
BBX 8 5 1 13
BITMAP
02
37
66
4C
C8
ENDCHAR
STARTCHAR semicolon.dup3
ENCODING 894
SWIDTH 147 0
DWIDTH 4 0
BBX 1 13 1 -1
BITMAP
80
00
00
00
00
00
00
00
00
80
80
80
80
ENDCHAR
STARTCHAR endash
ENCODING 8211
SWIDTH 589 0
DWIDTH 15 0
BBX 13 2 1 5
BITMAP
FFF8
FFF8
ENDCHAR
STARTCHAR emdash
ENCODING 8212
SWIDTH 1103 0
DWIDTH 28 0
BBX 25 2 1 5
BITMAP
FFFFFF80
FFFFFF80
ENDCHAR
STARTCHAR quoteleft
ENCODING 8216
SWIDTH 226 0
DWIDTH 6 0
BBX 3 8 2 11
BITMAP
80
80
80
80
80
80
E0
60
ENDCHAR
STARTCHAR quoteright
ENCODING 8217
SWIDTH 226 0
DWIDTH 6 0
BBX 3 7 0 13
BITMAP
E0
20
20
20
20
20
20
ENDCHAR
STARTCHAR quotesinglbase
ENCODING 8218
SWIDTH 226 0
DWIDTH 6 0
BBX 4 7 0 -3
BITMAP
E0
10
10
10
10
10
10
ENDCHAR
STARTCHAR quotedblleft
ENCODING 8220
SWIDTH 398 0
DWIDTH 10 0
BBX 7 8 0 11
BITMAP
88
88
88
88
88
88
66
60
ENDCHAR
STARTCHAR quotedblright
ENCODING 8221
SWIDTH 398 0
DWIDTH 10 0
BBX 8 8 0 12
BITMAP
46
C7
11
11
11
11
11
11
ENDCHAR
STARTCHAR quotedblbase
ENCODING 8222
SWIDTH 398 0
DWIDTH 10 0
BBX 8 6 1 -3
BITMAP
66
E7
63
23
22
46
ENDCHAR
STARTCHAR dagger
ENCODING 8224
SWIDTH 529 0
DWIDTH 13 0
BBX 11 21 1 -3
BITMAP
0400
0E00
0E00
0600
6460
FFE0
F5E0
0400
0600
0E00
0E00
0E00
0600
0600
0400
0400
0400
0400
0400
0400
0400
ENDCHAR
STARTCHAR daggerdbl
ENCODING 8225
SWIDTH 529 0
DWIDTH 13 0
BBX 11 21 1 -3
BITMAP
0400
0E00
0E00
0600
6460
FFE0
F5E0
0400
0400
0600
0E00
0E00
0600
0400
4440
FDE0
F5E0
4440
0600
0E00
0E00
ENDCHAR
STARTCHAR bullet
ENCODING 8226
SWIDTH 392 0
DWIDTH 10 0
BBX 8 7 1 5
BITMAP
7C
7E
FF
FF
FE
7E
3C
ENDCHAR
STARTCHAR ellipsis
ENCODING 8230
SWIDTH 892 0
DWIDTH 22 0
BBX 20 3 1 0
BITMAP
606070
E07070
606020
ENDCHAR
STARTCHAR guilsinglleft
ENCODING 8249
SWIDTH 279 0
DWIDTH 7 0
BBX 4 8 2 2
BITMAP
10
20
60
C0
C0
40
20
10
ENDCHAR
STARTCHAR guilsinglright
ENCODING 8250
SWIDTH 279 0
DWIDTH 7 0
BBX 4 8 1 2
BITMAP
80
40
60
30
30
20
40
80
ENDCHAR
STARTCHAR fraction
ENCODING 8260
SWIDTH 610 0
DWIDTH 15 0
BBX 12 18 2 0
BITMAP
0010
0020
0060
0040
0080
0080
0100
0300
0200
0400
0C00
0800
1000
3000
2000
4000
C000
8000
ENDCHAR
STARTCHAR franc
ENCODING 8355
SWIDTH 602 0
DWIDTH 15 0
BBX 12 18 1 0
BITMAP
FFF0
3810
1800
1800
1800
1800
1800
1820
1FE0
1FE0
1820
1800
1800
FE00
1800
1800
3800
FE00
ENDCHAR
STARTCHAR lira
ENCODING 8356
SWIDTH 524 0
DWIDTH 13 0
BBX 11 18 1 0
BITMAP
0780
18C0
3040
3000
6000
6000
6000
6000
FF00
3000
FF80
1800
1800
1800
3000
3020
6040
7FC0
ENDCHAR
STARTCHAR peseta
ENCODING 8359
SWIDTH 1040 0
DWIDTH 26 0
BBX 24 18 1 0
BITMAP
FF0000
38E000
186100
183100
183100
183300
181FFE
183362
183342
183360
186370
1EC33C
18031E
180307
180303
180383
380342
FE01FC
ENDCHAR
STARTCHAR Euro
ENCODING 8364
SWIDTH 647 0
DWIDTH 16 0
BBX 14 18 1 0
BITMAP
03F0
0418
0808
1800
3000
3000
2000
2000
7FF0
FFE0
2000
3000
3000
1000
1804
0C04
060C
03F0
ENDCHAR
STARTCHAR afii61352
ENCODING 8470
SWIDTH 97 0
DWIDTH 2 0
BBX 1 1 0 0
BITMAP
00
ENDCHAR
STARTCHAR trademark
ENCODING 8482
SWIDTH 97 0
DWIDTH 2 0
BBX 1 1 0 0
BITMAP
00
ENDCHAR
STARTCHAR partialdiff
ENCODING 8706
SWIDTH 523 0
DWIDTH 13 0
BBX 11 18 1 0
BITMAP
3000
0C00
0600
0100
0180
0080
1FC0
21C0
60C0
40E0
C0E0
C060
C060
C060
6040
60C0
3080
1900
ENDCHAR
STARTCHAR Delta
ENCODING 8710
SWIDTH 627 0
DWIDTH 16 0
BBX 13 17 1 0
BITMAP
0200
0300
0300
0500
0580
0080
08C0
08C0
1040
1060
1060
2020
2030
0010
4018
7FF8
FFF8
ENDCHAR
STARTCHAR product
ENCODING 8719
SWIDTH 796 0
DWIDTH 20 0
BBX 18 23 1 -5
BITMAP
FFFFC0
380700
180600
180600
180600
180600
180600
180600
180600
180600
180600
180600
180600
180600
180600
180600
180600
180600
180600
180600
180600
380600
FE1FC0
ENDCHAR
STARTCHAR summation
ENCODING 8721
SWIDTH 605 0
DWIDTH 15 0
BBX 13 23 1 -5
BITMAP
FFF0
7010
3808
1C00
0E00
0E00
0700
0380
01C0
01C0
00E0
0070
0060
0040
0080
0100
0200
0600
0C00
1800
1008
2010
FFF0
ENDCHAR
STARTCHAR minus
ENCODING 8722
SWIDTH 513 0
DWIDTH 13 0
BBX 11 2 1 8
BITMAP
FFE0
FFE0
ENDCHAR
STARTCHAR fraction.dup4
ENCODING 8725
SWIDTH 610 0
DWIDTH 15 0
BBX 12 18 2 0
BITMAP
0010
0020
0060
0040
0080
0080
0100
0300
0200
0400
0C00
0800
1000
3000
2000
4000
C000
8000
ENDCHAR
STARTCHAR periodcentered.dup5
ENCODING 8729
SWIDTH 225 0
DWIDTH 6 0
BBX 3 3 1 7
BITMAP
60
E0
60
ENDCHAR
STARTCHAR radical
ENCODING 8730
SWIDTH 611 0
DWIDTH 15 0
BBX 13 21 1 0
BITMAP
0018
0010
0030
0020
0060
0040
00C0
0080
0180
0100
0300
0200
0600
0400
0C00
0800
9800
5000
7000
2000
2000
ENDCHAR
STARTCHAR infinity
ENCODING 8734
SWIDTH 535 0
DWIDTH 13 0
BBX 11 9 1 4
BITMAP
23C0
77E0
CC20
8400
8000
8C20
5E60
73C0
0180
ENDCHAR
STARTCHAR integral
ENCODING 8747
SWIDTH 492 0
DWIDTH 12 0
BBX 10 24 1 -3
BITMAP
00C0
0140
0200
0200
0600
0600
0600
0400
0400
0C00
0C00
0C00
0C00
0C00
0C00
0C00
0C00
0C00
0800
0800
1800
1000
9000
E000
ENDCHAR
STARTCHAR approxequal
ENCODING 8776
SWIDTH 508 0
DWIDTH 13 0
BBX 10 7 1 5
BITMAP
7CC0
FFC0
8100
0000
7C40
FFC0
8380
ENDCHAR
STARTCHAR lessequal
ENCODING 8804
SWIDTH 513 0
DWIDTH 13 0
BBX 11 15 1 0
BITMAP
0060
00E0
03C0
0F00
3C00
7000
F000
7800
1E00
0780
01E0
00E0
0020
FFE0
FFE0
ENDCHAR
STARTCHAR greaterequal
ENCODING 8805
SWIDTH 513 0
DWIDTH 13 0
BBX 11 15 1 0
BITMAP
C000
E000
7800
1E00
0780
03C0
01E0
0380
0F00
3C00
F000
C000
8000
FFE0
FFE0
ENDCHAR
STARTCHAR uniF001
ENCODING 61441
SWIDTH 97 0
DWIDTH 2 0
BBX 1 1 0 0
BITMAP
00
ENDCHAR
STARTCHAR uniF002
ENCODING 61442
SWIDTH 97 0
DWIDTH 2 0
BBX 1 1 0 0
BITMAP
00
ENDCHAR
STARTCHAR uniF001.dup6
ENCODING 64257
SWIDTH 97 0
DWIDTH 2 0
BBX 1 1 0 0
BITMAP
00
ENDCHAR
STARTCHAR uniF002.dup7
ENCODING 64258
SWIDTH 97 0
DWIDTH 2 0
BBX 1 1 0 0
BITMAP
00
ENDCHAR
STARTCHAR .notdef
ENCODING -1
SWIDTH 505 0
DWIDTH 13 0
BBX 10 18 1 0
BITMAP
FFC0
8000
8000
8E00
8300
8300
8200
8600
8400
8800
8800
8800
8800
8800
8C00
8000
8000
FFC0
ENDCHAR
STARTCHAR .null
ENCODING -1
SWIDTH 97 0
DWIDTH 2 0
BBX 1 1 0 0
BITMAP
00
ENDCHAR
STARTCHAR nonmarkingreturn
ENCODING -1
SWIDTH 97 0
DWIDTH 2 0
BBX 1 1 0 0
BITMAP
00
ENDCHAR
ENDFONT
